PathFileType	4	(X/Y/Z)	S01_0005_Gait_markers.trc
DataRate	CameraRate	NumFrames	NumMarkers	Units	OrigDataRate	OrigDataStartFrame	OrigNumFrames
250.000000	250.000000	4	54	mm	250.000000	40	324
Frame#	Time	HEAD_ANT			R_HEAD			L_HEAD			C7			R_BACK			L_BACK			STERNUM			R_ACROMION			R_HUM_PROX			R_HUM_ANT			R_HUM_POST			R_ELBOW_LAT			R_ELBOW_MED			R_FOREARM			R_WIRST_LAT			R_WRITS_MED			R_HAND			L_ACROMION			L_HUM_PROX			L_HUM_ANT			L_HUM_POST			L_ELBOW_LAT			L_ELBOW_MED			L_FOREARM			L_WRIST_LAT			L_WIRST_MED			L_HAND			R_ILIAC			SACRUM			L_ILIAC			R_GTROCH			R_THIGH__1			R_THIGH_2			R_THIGH_3			R_THIGH_4			R_SHANK_1			R_SHANK_2			R_SHANK_3			R_SHANK_4			R_HEEL			R_FOOT_LAT			R_FOOT_MED			L_GTROCH			L_THIGH_1			L_THIGH_2			L_THIGH_3			L_THIGH_4			L_SHANK_1			L_SHANK_2			L_SHANK_3			L_SHANK_4			L_HEEL			L_FOOT_LAT			L_FOOT_MED			
		X1	Y1	Z1	X2	Y2	Z2	X3	Y3	Z3	X4	Y4	Z4	X5	Y5	Z5	X6	Y6	Z6	X7	Y7	Z7	X8	Y8	Z8	X9	Y9	Z9	X10	Y10	Z10	X11	Y11	Z11	X12	Y12	Z12	X13	Y13	Z13	X14	Y14	Z14	X15	Y15	Z15	X16	Y16	Z16	X17	Y17	Z17	X18	Y18	Z18	X19	Y19	Z19	X20	Y20	Z20	X21	Y21	Z21	X22	Y22	Z22	X23	Y23	Z23	X24	Y24	Z24	X25	Y25	Z25	X26	Y26	Z26	X27	Y27	Z27	X28	Y28	Z28	X29	Y29	Z29	X30	Y30	Z30	X31	Y31	Z31	X32	Y32	Z32	X33	Y33	Z33	X34	Y34	Z34	X35	Y35	Z35	X36	Y36	Z36	X37	Y37	Z37	X38	Y38	Z38	X39	Y39	Z39	X40	Y40	Z40	X41	Y41	Z41	X42	Y42	Z42	X43	Y43	Z43	X44	Y44	Z44	X45	Y45	Z45	X46	Y46	Z46	X47	Y47	Z47	X48	Y48	Z48	X49	Y49	Z49	X50	Y50	Z50	X51	Y51	Z51	X52	Y52	Z52	X53	Y53	Z53	X54	Y54	Z54	

41	0.16	404.60546875	1714.949584960938	-287.4831848144527	346.3872985839844	1657.389038085938	-214.8148651123043	349.3795471191406	1670.3427734375	-362.455657958984	214.9878234863281	1494.578979492188	-305.9298095703122	136.6435852050781	1296.43603515625	-253.4110717773435	146.4840393066406	1304.279052734375	-388.0703124999997	387.7123413085938	1326.2626953125	-296.7597045898435	279.3634643554688	1436.26904296875	-129.5215301513669	221.4339904785156	1276.09814453125	-49.86685943603487	276.1852111816406	1186.342895507812	-43.08939743041966	155.0475921630859	1196.940307617188	-47.699466705322	194.5734252929688	1086.879150390625	-38.60920715332007	183.3164978027344	1085.5078125	-120.9472198486326	304.2538146972656	910.194091796875	-34.59441757202129	356.5758056640625	854.7127685546875	-67.89903259277325	286.5004272460938	818.2633056640625	-52.41318511962872	360.7622680664062	766.7782592773438	-10.27504062652571	306.9669189453125	1451.624755859375	-469.4632568359372	290.4909362792969	1287.359497070313	-568.9862060546872	354.2320556640625	1207.758911132813	-564.828674316406	234.5985565185547	1209.307373046875	-598.1942138671873	295.5799255371094	1105.043334960938	-604.520080566406	244.0425415039062	1095.5576171875	-547.2622070312498	418.670166015625	942.1387939453126	-582.329650878906	458.3232421875	888.0570068359376	-531.075012207031	414.068115234375	858.1278686523439	-591.2863159179685	496.4941101074219	812.1140136718751	-575.893859863281	284.7188415527344	1044.526489257812	-144.0673065185545	162.5959167480469	1018.757263183594	-314.5950927734373	285.6807861328125	1040.492797851562	-490.9311523437498	262.2771606445312	898.8685913085938	-131.8618774414061	394.1631164550781	639.773681640625	-163.3676910400389	441.571533203125	674.4711303710938	-166.169723510742	476.5437622070312	580.4525756835938	-204.0721740722655	416.9146118164062	562.988525390625	-184.9796142578124	450.0499267578125	343.4596862792969	-182.2364196777343	504.1000061035156	329.6665649414063	-205.5501861572265	507.4892578125	245.2587585449219	-224.0205383300781	446.5438232421875	243.4371643066407	-203.6981964111328	415.3947448730469	39.20980834960944	-286.83447265625	580.126953125	22.06367683410649	-207.9010620117188	630.14501953125	33.8444900512696	-307.6005859375	235.2455139160156	929.6682739257814	-495.7778015136716	263.603271484375	637.3083496093751	-494.9281616210936	214.885986328125	669.8707275390626	-504.5692749023436	180.4381103515625	570.9055175781251	-483.6552124023436	243.0433349609375	558.9978027343751	-479.7597351074218	52.35191345214844	340.0076599121095	-477.6988830566406	-3.939405679702759	362.7744750976564	-478.5627746582031	-63.57752227783203	300.3806457519532	-461.4928588867187	-12.32716083526611	262.1619567871095	-456.1790466308593	-209.1431884765625	204.6626892089845	-391.4050292968749	-142.8993072509766	34.76002883911142	-431.7351684570312	-114.9436416625977	37.90613174438484	-329.8057861328125	
42	0.164	410.6353454589844	1715.485717773438	-286.6622924804684	352.3108825683594	1657.739135742188	-214.095306396484	355.3000793457031	1670.933471679688	-361.5762939453121	220.8474426269531	1494.970703125	-305.358245849609	142.9327087402344	1296.648681640625	-252.7709960937497	152.8319396972656	1304.6181640625	-387.8177185058591	393.9177856445312	1326.975341796875	-296.1337585449216	285.5219421386719	1436.761474609375	-128.94465637207	227.6098175048828	1276.468139648438	-48.91876602172823	283.046875	1186.772094726562	-42.89862823486302	161.9091186523438	1197.173095703125	-46.97724533081028	201.2548522949219	1087.261840820312	-38.21594619750952	189.856201171875	1085.9931640625	-120.6451797485349	311.2571105957031	910.6077880859375	-34.72203826904277	363.698974609375	855.2971801757812	-68.25844573974591	293.6903686523438	818.6712646484375	-52.59570693969708	368.1511535644531	767.2941284179688	-10.74448013305647	313.1605834960938	1452.33935546875	-468.6481323242184	296.5146484375	1288.218872070313	-568.5669555664059	359.900390625	1208.3212890625	-564.4139404296873	240.2029113769531	1210.348022460938	-597.753967285156	301.1271667480469	1105.84375	-603.9761962890623	249.4856567382812	1096.726196289063	-546.626770019531	423.3673095703125	942.3379516601564	-582.3890991210935	462.6400146484375	887.8422241210939	-531.5051269531248	418.3932800292969	858.3179931640626	-591.2487182617185	500.4879760742188	811.8512573242189	-576.1524658203123	291.39111328125	1045.755615234375	-143.8357238769529	168.7582702636719	1018.99072265625	-314.1799621582029	292.9258422851562	1040.7470703125	-490.2968749999998	267.9851684570312	899.5567626953125	-131.3729705810545	399.6086120605469	639.6116333007812	-163.0531158447264	447.1176147460938	674.3490600585938	-165.7599182128905	481.8977355957031	580.0439453125	-203.9945068359374	422.0331115722656	562.8074340820312	-185.0472106933593	453.6033325195312	343.4762573242188	-182.4411621093749	507.3172607421875	329.3352050781251	-206.0866241455077	509.9747314453125	244.8701324462891	-224.4182128906249	449.0456237792969	243.4502105712891	-204.0577545166015	415.6215515136719	39.32378387451178	-286.9983520507812	580.28271484375	21.91651725769048	-207.7557067871094	630.7745971679688	33.1924018859864	-307.9463806152344	242.0392303466797	929.5496826171876	-495.4532775878904	272.7583312988281	637.0578002929689	-495.4244995117186	223.7145080566406	669.4135131835939	-504.9943237304686	190.2180633544922	570.0637817382814	-484.5036621093749	252.7791748046875	558.7409057617189	-480.8130798339843	61.14403915405273	340.4306945800782	-478.8491516113281	5.032173633575439	363.8623657226564	-479.3132934570312	-55.17122268676758	302.1763000488282	-462.1343078613281	-4.248875141143799	263.1293334960939	-457.6146850585937	-201.1114654541016	209.0625762939454	-392.7933959960937	-140.0901031494141	36.8913230895997	-431.4525146484375	-112.4342498779297	39.8879699707032	-329.9576721191406	
43	0.168	416.580810546875	1716.115356445312	-285.8880004882809	358.1755981445312	1658.128784179688	-213.4722137451168	361.212890625	1671.511474609375	-360.7669067382809	226.7230224609375	1495.384887695312	-304.6546936035153	148.9104156494141	1297.346923828125	-252.1179504394528	159.3348693847656	1305.123291015625	-387.4638061523435	400.0437316894531	1327.587646484375	-295.5235900878903	291.7195129394531	1437.28955078125	-128.4693603515622	234.2698974609375	1276.79296875	-48.41690826415987	289.8441467285156	1187.26025390625	-42.70565414428685	168.7489471435547	1197.552612304688	-46.21158599853489	207.9461975097656	1087.705078125	-37.87967300415015	196.4254608154297	1086.260864257812	-120.1667785644529	319.148681640625	911.3468017578125	-34.67655181884746	370.82861328125	855.8746948242188	-68.61109161376935	300.825439453125	819.2796630859375	-52.82428359985333	375.1458740234375	767.7859497070312	-11.59885311126692	319.4085693359375	1452.923095703125	-467.9614257812497	302.6761779785156	1289.0595703125	-568.0284423828122	365.8003234863281	1209.058959960938	-563.9691772460935	245.9747619628906	1211.364135742188	-597.3707275390623	306.5356750488281	1106.625	-603.5294799804685	254.7660369873047	1097.614990234375	-546.1913452148435	428.1296691894531	942.7479858398439	-582.3553466796873	467.4175109863281	887.7695922851564	-531.560119628906	422.6422424316406	858.7594604492189	-591.4447631835935	504.3937683105469	811.7441406250001	-576.4775390624998	297.97265625	1046.837280273438	-143.6672058105466	174.8772430419922	1019.527465820313	-313.8078613281248	299.9101257324219	1041.462524414062	-489.5989685058591	273.8702087402344	900.0462646484375	-131.033737182617	404.82763671875	639.5158081054688	-162.8903503417967	452.6674499511719	673.858642578125	-165.2360687255858	486.7535400390625	579.8761596679688	-203.948272705078	426.8700866699219	562.6672973632812	-185.1650543212889	456.8848266601562	343.5279541015626	-182.7147827148437	510.4612731933594	328.9005737304688	-206.5733337402343	512.2605590820312	244.3585052490235	-224.8815612792968	451.4083862304688	243.4633178710938	-204.4137725830078	415.8218994140625	39.46226882934577	-287.212890625	580.4094848632812	21.77445983886723	-207.5485229492188	631.50146484375	32.50621414184577	-308.189453125	248.5855407714844	929.5294189453126	-495.1235656738279	281.842041015625	637.0643310546876	-496.345245361328	232.2997589111328	668.7911376953126	-505.3582763671873	199.9906463623047	569.2408447265626	-485.4586486816405	262.6443481445312	558.4172363281251	-481.9065551757811	70.36665344238281	340.7159423828126	-479.8838195800781	14.19893550872803	364.8042907714845	-479.9438476562499	-46.35224914550781	303.6495361328126	-462.7638549804687	4.083051204681396	264.2930908203126	-458.3353576660156	-193.0111999511719	213.4133911132813	-394.1894226074218	-136.5099945068359	39.56230926513681	-431.5848083496094	-109.3410873413086	41.95697021484382	-330.4206237792969	
44	0.172	422.4330444335938	1716.536254882812	-285.0289306640621	364.0693664550781	1658.617797851562	-212.7933502197262	367.0673522949219	1672.053344726562	-359.9418029785152	232.4229888916016	1495.72412109375	-304.1535034179684	155.1776428222656	1297.638793945312	-251.5023040771482	165.2732238769531	1305.831176757812	-387.4507751464841	406.2182312011719	1328.159423828125	-295.0475463867185	297.8606262207031	1437.848754882812	-127.8999099731442	241.1936187744141	1277.15771484375	-47.44347381591768	296.6649475097656	1187.673461914062	-42.50383758544896	175.6263275146484	1197.814331054688	-45.4981727600095	215.1627044677734	1087.879760742188	-37.40394210815406	202.9715576171875	1086.887329101562	-119.8202209472654	325.7662963867188	911.50048828125	-35.21167373657207	377.8936157226562	856.2533569335938	-69.5477752685545	307.9868469238281	819.799560546875	-53.15360641479474	382.6060485839844	768.2908325195312	-12.18360233306868	325.5367126464844	1453.729736328125	-467.2424926757809	308.69677734375	1289.925659179688	-567.5343627929684	371.5128173828125	1209.609985351563	-563.5571289062498	251.7347869873047	1212.294555664063	-596.8586425781248	311.7647705078125	1107.657958984375	-603.2218017578123	259.84326171875	1099.060546875	-545.9002685546873	432.6532897949219	942.9670410156251	-582.4320678710935	471.7684631347656	887.5847778320314	-531.4458007812498	426.9312133789062	859.0933837890626	-591.548156738281	508.2934875488281	811.4252929687501	-576.9054565429685	304.4538269042969	1047.859375	-143.5623931884763	181.0209045410156	1019.750671386719	-313.5028076171873	306.6162414550781	1041.881591796875	-488.8288879394529	280.0590515136719	900.57763671875	-130.4454956054686	409.9259948730469	639.0713500976562	-162.8576354980467	457.9802551269531	673.32275390625	-164.5090179443358	491.8697204589844	579.3015747070312	-203.8305206298827	431.5698852539062	562.4681396484375	-185.2208862304686	459.8893432617188	343.4610290527344	-183.0391540527343	513.423828125	328.1462402343751	-207.2686157226562	514.4364013671875	243.9271697998047	-225.2749481201171	453.5379943847656	243.9564971923829	-204.1471557617187	416.0863342285156	39.71352767944342	-286.8266906738281	580.5390625	21.6136913299561	-207.3617095947266	632.1187744140625	31.95866203308112	-308.6456298828125	255.3215026855469	929.5554199218751	-494.5391540527341	290.793212890625	637.0048217773439	-496.8338317871093	241.2341918945312	668.4805297851564	-505.9430847167967	209.633544921875	568.3668212890626	-486.2326049804686	272.4351806640625	557.9873657226564	-482.9354248046874	79.43950653076172	340.9580993652345	-480.5635375976562	23.80877685546875	365.8220520019532	-480.6850585937499	-37.58974075317383	305.4000854492189	-463.4142150878906	12.48813152313232	265.0564880371095	-459.2765197753906	-184.8000946044922	217.9617156982423	-395.3646545410156	-132.0122528076172	42.76608657836924	-432.0623779296875	-106.6520690917969	44.41867446899421	-330.4877014160156	
